<svg width="58" height="33" viewBox="0 0 58 33" fill="none" xmlns="http://www.w3.org/2000/svg">
<path d="M3.86475 6.87315C6.20289 5.97129 8.86157 5.51384 11.2971 5.08174L11.3053 5.08028C13.7162 4.65254 16.3842 4.17919 18.8743 4.27589C20.2323 4.32863 20.3634 4.46037 21.2803 5.08174C22.2294 5.72492 23.0205 6.47154 23.692 7.39492M11.5869 3.3248C14.8866 3.16661 19.0472 2.92914 22.4165 2.89578C23.8162 2.88193 25.2964 2.89654 26.6951 3.12768C27.2639 3.22169 27.8322 3.45673 28.3879 3.61467C28.7509 3.71784 29.192 3.7204 29.5358 3.86976C30.0376 4.08777 30.6372 4.56623 31.0242 4.87498L31.0431 4.89011C32.6291 6.15533 33.1028 6.65097 34.7535 8.02073M27.0317 1.96816C30.3766 1.56208 34.1787 0.64194 37.5251 1.54495C38.8419 1.90027 40.1668 2.28783 41.45 2.75082C42.8644 3.26117 44.0764 4.25375 45.2271 5.19605L45.2357 5.20314C45.6057 5.50612 46.0106 5.77485 46.1285 6.24668M39.5542 1.55078C41.8658 2.16334 46.4267 3.3624 48.9229 4.05528C49.4298 4.19599 51.1764 4.66737 51.9491 4.99446C52.2165 5.10765 52.4773 5.35982 52.726 5.51623C53.2477 5.8444 53.5957 6.27577 54.1638 6.55977M2 8L5.57831 15.7538L11.759 24.2462L19.0357 32H40L46.5 24.2462L52.5 15.7538L56 8H2Z" stroke="#FFD000" stroke-width="2" stroke-linecap="round"/>
</svg>
