<svg width="50" height="50" viewBox="0 0 50 50" fill="none" xmlns="http://www.w3.org/2000/svg">
<rect x="0.5" y="0.5" width="49" height="49" rx="5.5" stroke="#FFD000"/>
<path fill-rule="evenodd" clip-rule="evenodd" d="M25.0001 13.6362C18.7242 13.6362 13.6365 18.7239 13.6365 24.9999C13.6365 31.2758 18.7242 36.3635 25.0001 36.3635C31.276 36.3635 36.3637 31.2758 36.3637 24.9999C36.3637 18.7239 31.276 13.6362 25.0001 13.6362ZM18.1819 24.9999C18.1819 28.7656 21.2344 31.8181 25.0001 31.8181C28.7658 31.8181 31.8183 28.7656 31.8183 24.9999C31.8183 21.2342 28.7658 18.1817 25.0001 18.1817C21.2344 18.1817 18.1819 21.2342 18.1819 24.9999Z" fill="black"/>
<path d="M38.6365 9.09082C37.3813 9.09082 36.3638 10.1084 36.3638 11.3635C36.3638 12.6187 37.3813 13.6363 38.6365 13.6363C39.8917 13.6363 40.9092 12.6187 40.9092 11.3635C40.9092 10.1084 39.8917 9.09082 38.6365 9.09082Z" fill="black"/>
<path fill-rule="evenodd" clip-rule="evenodd" d="M9.09091 0C4.07014 0 0 4.07014 0 9.09091V40.9091C0 45.9298 4.07014 50 9.09091 50H40.9091C45.9298 50 50 45.9298 50 40.9091V9.09091C50 4.07014 45.9298 0 40.9091 0H9.09091ZM40.9091 4.54545H9.09091C6.58052 4.54545 4.54545 6.58052 4.54545 9.09091V40.9091C4.54545 43.4195 6.58052 45.4545 9.09091 45.4545H40.9091C43.4195 45.4545 45.4545 43.4195 45.4545 40.9091V9.09091C45.4545 6.58052 43.4195 4.54545 40.9091 4.54545Z" fill="black"/>
</svg>
